<?xml version="1.0" encoding="UTF-8" standalone="no"?>
<svg width="8px" height="8px" viewBox="0 0 8 8" version="1.1" xmlns="http://www.w3.org/2000/svg" xmlns:xlink="http://www.w3.org/1999/xlink">
    <!-- Generator: Sketch 3.8.3 (29802) - http://www.bohemiancoding.com/sketch -->
    <title>Path</title>
    <desc>Created with Sketch.</desc>
    <defs></defs>
    <g id="Page-1" stroke="none" stroke-width="1" fill="none" fill-rule="evenodd">
        <path d="M7.99964592,7.04480616 C7.98629152,7.28451768 7.89948791,7.52489692 7.71252627,7.71252627 C7.52489692,7.89882019 7.28451768,7.98629152 7.04480616,7.99964592 C6.77771811,8.00632312 6.50328515,7.91885179 6.29629191,7.71252627 L4.00000244,5.41490136 L1.70371297,7.71252627 C1.49605201,7.91885179 1.22228676,8.0056554 0.955198719,7.99964592 C0.715487198,7.98629152 0.475107957,7.89948791 0.287478604,7.71252627 C0.101184693,7.52489692 0.0137133576,7.28451768 0.000358955292,7.04480616 C-0.00631824585,6.77771811 0.0798176489,6.50328515 0.287478604,6.29629191 L2.58376808,4.00000244 L0.287478604,1.70371297 C0.0798176489,1.49605201 -0.00565052574,1.22228676 0.000358955292,0.955198719 C0.0137133576,0.715487198 0.100516972,0.475107957 0.287478604,0.287478604 C0.475107957,0.101184693 0.715487198,0.0137133576 0.955198719,0.000358955292 C1.22228676,-0.00631824585 1.49671973,0.0798176489 1.70371297,0.287478604 L4.00000244,2.58376808 L6.29629191,0.287478604 C6.50395287,0.0798176489 6.77771811,-0.00565052574 7.04480616,0.000358955292 C7.28451768,0.0137133576 7.52489692,0.100516972 7.71252627,0.287478604 C7.89882019,0.475107957 7.98629152,0.715487198 7.99964592,0.955198719 C8.00632312,1.22228676 7.91885179,1.49671973 7.71252627,1.70371297 L5.41490136,4.00000244 L7.71252627,6.29629191 C7.91885179,6.50395287 8.0056554,6.77771811 7.99964592,7.04480616 L7.99964592,7.04480616 Z" id="Path" fill="#9B9B9B"></path>
    </g>
</svg>