<?xml version="1.0" encoding="UTF-8" standalone="no"?>
<svg width="41px" height="41px" viewBox="0 0 41 41" version="1.1" xmlns="http://www.w3.org/2000/svg" xmlns:xlink="http://www.w3.org/1999/xlink">
    <!-- Generator: Sketch 3.7.2 (28276) - http://www.bohemiancoding.com/sketch -->
    <title>Shape</title>
    <desc>Created with Sketch.</desc>
    <defs></defs>
    <g id="Page-1" stroke="none" stroke-width="1" fill="none" fill-rule="evenodd">
        <path d="M9.609375,16.6557295 C8.5459375,16.6557295 7.6875,15.7973188 7.6875,14.7339146 C7.6875,13.6705103 8.5459375,12.8120996 9.609375,12.8120996 C10.6728125,12.8120996 11.53125,13.6705103 11.53125,14.7339146 C11.53125,15.7973188 10.6728125,16.6557295 9.609375,16.6557295 L9.609375,16.6557295 Z M17.296875,16.6557295 C16.2334375,16.6557295 15.375,15.7973188 15.375,14.7339146 C15.375,13.6705103 16.2334375,12.8120996 17.296875,12.8120996 C18.3603125,12.8120996 19.21875,13.6705103 19.21875,14.7339146 C19.21875,15.7973188 18.3603125,16.6557295 17.296875,16.6557295 L17.296875,16.6557295 Z M24.984375,16.6557295 C23.9209375,16.6557295 23.0625,15.7973188 23.0625,14.7339146 C23.0625,13.6705103 23.9209375,12.8120996 24.984375,12.8120996 C26.0478125,12.8120996 26.90625,13.6705103 26.90625,14.7339146 C26.90625,15.7973188 26.0478125,16.6557295 24.984375,16.6557295 L24.984375,16.6557295 Z M16.65625,2.56241992 C8.86625,2.56241992 2.5625,8.00756226 2.5625,14.7339146 C2.5625,19.0003437 5.1121875,22.7542889 8.96875,24.9323459 L8.96875,27.4947658 L8.96875,29.4678291 L10.8521875,28.2250555 L10.839375,28.2122434 L13.3378125,26.5466704 C14.40125,26.7772882 15.5159375,26.9054092 16.65625,26.9054092 C24.44625,26.9054092 30.75,21.4602669 30.75,14.7339146 C30.75,8.00756226 24.44625,2.56241992 16.65625,2.56241992 L16.65625,2.56241992 Z M16.65625,29.1475266 C15.605625,29.1475266 14.580625,29.0578419 13.5940625,28.8912846 L6.40625,33.311459 L6.40625,26.0469985 C2.51125,23.3820818 0,19.2309615 0,14.5801694 C0,6.52135871 7.456875,0 16.65625,0 C25.855625,0 33.3125,6.52135871 33.3125,14.5801694 C33.3125,22.6274491 25.855625,29.1475266 16.65625,29.1475266 L16.65625,29.1475266 Z M34.59375,33.7355395 L34.59375,41 L27.4059375,36.5798256 C26.419375,36.7463829 25.394375,36.8360676 24.34375,36.8360676 C19.4109375,36.8360676 14.990625,34.952689 11.94125,31.9674698 C12.4409375,31.993094 12.940625,32.0315303 13.453125,32.0315303 C14.170625,32.0315303 14.8753125,31.993094 15.5671875,31.9418456 C17.9759375,33.5946064 21.0253125,34.5939502 24.34375,34.5939502 C25.4840625,34.5939502 26.59875,34.4658292 27.6621875,34.2352114 L30.160625,35.9007844 L30.1478125,35.9135965 L32.03125,37.1563701 L32.03125,35.1833068 L32.03125,32.6208868 C35.8878125,30.4428299 38.4375,26.6888847 38.4375,22.4224555 C38.4375,19.7191025 37.3996875,17.2335552 35.6828125,15.2092435 C35.798125,14.4277054 35.875,13.6333552 35.875,12.8133808 C35.875,12.4418299 35.8365625,12.0830912 35.8109375,11.7115403 C39.00125,14.3636449 41,18.104778 41,22.2687104 C41,26.9182213 38.48875,31.0693416 34.59375,33.7355395 L34.59375,33.7355395 Z" id="Shape" fill="#676767"></path>
    </g>
</svg>