<?xml version="1.0" encoding="UTF-8" standalone="no"?>
<svg width="36px" height="38px" viewBox="0 0 36 38" version="1.1" xmlns="http://www.w3.org/2000/svg" xmlns:xlink="http://www.w3.org/1999/xlink">
    <!-- Generator: Sketch 3.7.2 (28276) - http://www.bohemiancoding.com/sketch -->
    <title>Shape</title>
    <desc>Created with Sketch.</desc>
    <defs></defs>
    <g id="Page-1" stroke="none" stroke-width="1" fill="none" fill-rule="evenodd">
        <path d="M27.192,24.6525 L18.912,32.84625 C18.66,33.0968125 18.324,33.1918125 18,33.1775625 C17.676,33.1918125 17.34,33.0968125 17.088,32.84625 L8.808,24.6525 C8.34,24.1905625 8.34,23.4305625 8.808,22.96625 C9.2772,22.5043125 10.044,22.5043125 10.512,22.96625 L16.8,29.200625 L16.8,1.1875 C16.8,0.5355625 17.34,0 18,0 C18.66,0 19.2,0.5355625 19.2,1.1875 L19.2,29.200625 L25.488,22.96625 C25.956,22.5043125 26.7228,22.5043125 27.192,22.96625 C27.66,23.429375 27.66,24.1905625 27.192,24.6525 L27.192,24.6525 Z M31.2,38 L4.8,38 C2.148,38 0,35.8755625 0,33.25 L0,9.5 C0,6.8768125 2.148,4.75 4.8,4.75 L9.6,4.75 L9.6,7.125 L4.8,7.125 C3.48,7.125 2.4,8.19375 2.4,9.5 L2.4,33.25 C2.4,34.55625 3.48,35.625 4.8,35.625 L31.2,35.625 C32.52,35.625 33.6,34.55625 33.6,33.25 L33.6,9.5 C33.6,8.19375 32.52,7.125 31.2,7.125 L26.4,7.125 L26.4,4.75 L31.2,4.75 C33.852,4.75 36,6.8768125 36,9.5 L36,33.25 C36,35.8755625 33.852,38 31.2,38 L31.2,38 Z" id="Shape" fill="#676767"></path>
    </g>
</svg>