<?xml version="1.0" encoding="UTF-8" standalone="no"?>
<svg width="16px" height="19px" viewBox="0 0 16 19" version="1.1" xmlns="http://www.w3.org/2000/svg" xmlns:xlink="http://www.w3.org/1999/xlink">
    <!-- Generator: Sketch 3.7.2 (28276) - http://www.bohemiancoding.com/sketch -->
    <title>Shape Copy 2</title>
    <desc>Created with Sketch.</desc>
    <defs></defs>
    <g id="Page-1" stroke="none" stroke-width="1" fill="none" fill-rule="evenodd">
        <path d="M11.0769231,8.3125 C11.4153846,8.3125 11.6923077,8.5796875 11.6923077,8.90625 L11.6923077,16.03125 C11.6923077,16.3578125 11.4153846,16.625 11.0769231,16.625 C10.7384615,16.625 10.4615385,16.3578125 10.4615385,16.03125 L10.4615385,8.90625 C10.4615385,8.58028125 10.7384615,8.3125 11.0769231,8.3125 L11.0769231,8.3125 Z M8,8.3125 C8.33846154,8.3125 8.61538462,8.5796875 8.61538462,8.90625 L8.61538462,16.03125 C8.61538462,16.3578125 8.33846154,16.625 8,16.625 C7.66153846,16.625 7.38461538,16.3578125 7.38461538,16.03125 L7.38461538,8.90625 C7.38461538,8.58028125 7.66153846,8.3125 8,8.3125 L8,8.3125 Z M4.92307692,8.3125 C5.26153846,8.3125 5.53846154,8.5796875 5.53846154,8.90625 L5.53846154,16.03125 C5.53846154,16.3578125 5.26153846,16.625 4.92307692,16.625 C4.58461538,16.625 4.30769231,16.3578125 4.30769231,16.03125 L4.30769231,8.90625 C4.30769231,8.58028125 4.58461538,8.3125 4.92307692,8.3125 L4.92307692,8.3125 Z M14.1538462,3.5625 L1.84615385,3.5625 C1.50769231,3.5625 1.23076923,3.8296875 1.23076923,4.15625 C1.23076923,4.4828125 1.50769231,4.75 1.84615385,4.75 L14.1538462,4.75 C14.4923077,4.75 14.7692308,4.4828125 14.7692308,4.15625 C14.7692308,3.8296875 14.4923077,3.5625 14.1538462,3.5625 L14.1538462,3.5625 Z M9.84615385,1.78125 C9.84615385,1.4546875 9.56923077,1.1875 9.23076923,1.1875 L6.76923077,1.1875 C6.43076923,1.1875 6.15384615,1.4546875 6.15384615,1.78125 L6.15384615,2.375 L6.65230769,2.375 L6.65846154,2.375 L6.76923077,2.375 L9.23076923,2.375 L9.84615385,2.375 L9.84615385,1.78125 L9.84615385,1.78125 Z M2.46153846,16.625 C2.46153846,17.278125 3.01538462,17.8125 3.69230769,17.8125 L12.3076923,17.8125 C12.9846154,17.8125 13.5384615,17.278125 13.5384615,16.625 L13.5384615,5.9375 L12.3076923,5.9375 L3.69230769,5.9375 L2.46153846,5.9375 L2.46153846,16.625 L2.46153846,16.625 Z M14.7692308,5.9375 L14.7692308,16.625 C14.7692308,17.9371875 13.6676923,19 12.3076923,19 L3.69230769,19 C2.33230769,19 1.23076923,17.9371875 1.23076923,16.625 L1.23076923,5.9375 C0.553846154,5.9375 0,5.403125 0,4.75 L0,3.5625 C0,2.909375 0.553846154,2.375 1.23076923,2.375 L4.92307692,2.375 L4.92307692,1.1875 C4.92307692,0.534375 5.47692308,0 6.15384615,0 L9.84615385,0 C10.5230769,0 11.0769231,0.534375 11.0769231,1.1875 L11.0769231,2.375 L14.7692308,2.375 C15.4461538,2.375 16,2.909375 16,3.5625 L16,4.75 C16,5.40371875 15.4461538,5.9375 14.7692308,5.9375 L14.7692308,5.9375 Z" id="Shape-Copy-2" fill="#D0011B"></path>
    </g>
</svg>