<?xml version="1.0" encoding="UTF-8" standalone="no"?>
<svg width="45px" height="45px" viewBox="0 0 45 45" version="1.1" xmlns="http://www.w3.org/2000/svg" xmlns:xlink="http://www.w3.org/1999/xlink">
    <!-- Generator: Sketch 3.8.3 (29802) - http://www.bohemiancoding.com/sketch -->
    <title>sh-googleplus</title>
    <desc>Created with Sketch.</desc>
    <defs></defs>
    <g id="Page-1" stroke="none" stroke-width="1" fill="none" fill-rule="evenodd">
        <path d="M16.3881992,26.9026912 C13.2922551,27.1148589 10.9049605,29.124895 11.0607629,31.3981201 C11.2110368,33.6662935 13.8445997,35.3383768 16.9455697,35.1262092 C20.0415138,34.9140415 22.4288084,32.9035002 22.2780319,30.6302752 C22.1227321,28.3626069 19.4891692,26.6910287 16.3881992,26.9026912 L16.3881992,26.9026912 Z M19.7806705,15.2132628 C19.0815701,12.6167346 17.0164346,10.9193932 15.1719355,11.4245544 C13.3224104,11.9297155 12.3971453,14.4403663 13.1012715,17.0368945 C13.8043926,19.6334226 15.8705332,21.330764 17.7150324,20.8256029 C19.5595316,20.3204418 20.4847967,17.809791 19.7806705,15.2132628 L19.7806705,15.2132628 Z M24.6909584,30.1357224 C24.6909584,37.404991 15.7398603,36.9958105 15.7398603,36.9958105 C15.7398603,36.9958105 8,37.2787007 8,31.4188317 C8,25.5640142 16.7802181,25.80144 17.2325476,25.80144 C17.1219782,24.4582165 16.227371,24.6799823 16.227371,24.0182212 L16.227371,22.3764476 C16.227371,22.3764476 9.58817912,23.1291376 9.58817912,16.6630752 C9.58817912,10.1970128 17.1822888,10.0101032 17.1822888,10.0101032 L24.6904558,10.0101032 C24.6904558,11.156819 21.2628034,10.7526901 21.2628034,11.3689866 C23.2027944,12.247967 23.4294617,13.7381923 23.4294617,16.2185334 C23.4294617,20.3456998 19.584661,20.8559126 19.584661,22.6138733 C19.584661,24.371834 24.6909584,25.7761819 24.6909584,30.1357224 L24.6909584,30.1357224 Z M32.9886918,16.5721462 L32.9886918,21.603551 L31.4663517,21.603551 L31.4663517,16.5721462 L26.4253908,16.5721462 L26.4253908,15.041508 L31.4663517,15.041508 L31.4663517,10 L32.9886918,10 L32.9886918,15.041508 L38,15.041508 L38,16.5721462 L32.9886918,16.5721462 L32.9886918,16.5721462 Z" id="Shape" fill="#E2411D"></path>
    </g>
</svg>