<?xml version="1.0" encoding="UTF-8" standalone="no"?>
<svg width="45px" height="45px" viewBox="0 0 45 45" version="1.1" xmlns="http://www.w3.org/2000/svg" xmlns:xlink="http://www.w3.org/1999/xlink">
    <!-- Generator: Sketch 3.8.3 (29802) - http://www.bohemiancoding.com/sketch -->
    <title>sh-twitter</title>
    <desc>Created with Sketch.</desc>
    <defs></defs>
    <g id="Page-1" stroke="none" stroke-width="1" fill="none" fill-rule="evenodd">
        <path d="M39,13.0779652 C37.8210526,13.5979485 36.5578947,13.9501952 35.2273684,14.1095449 C36.5831579,13.3044095 37.6273684,12.0128383 38.1157895,10.4780491 C36.8442105,11.2328635 35.4463158,11.7780072 33.9473684,12.0715461 C32.7515789,10.7967485 31.0421053,10 29.1557895,10 C25.5263158,10 22.5873684,12.943776 22.5873684,16.5668849 C22.5873684,17.0784813 22.6463158,17.5816909 22.7557895,18.05974 C17.3073684,17.7829747 12.4652632,15.1746718 9.23157895,11.1993162 C8.65894737,12.172188 8.33894737,13.2960227 8.33894737,14.5037257 C8.33894737,16.7765556 9.50105263,18.7893939 11.2610526,19.9635496 C10.1831579,19.9300023 9.17263158,19.6364633 8.28842105,19.1416406 L8.28842105,19.2255089 C8.28842105,22.404116 10.5452632,25.0543531 13.5515789,25.6582046 C13.0042105,25.8091674 12.4231579,25.8930357 11.8252632,25.8930357 C11.3957895,25.8930357 10.9915789,25.8511016 10.5873684,25.7756201 C11.4210526,28.3830844 13.8463158,30.2785071 16.7178947,30.3296668 C14.4694737,32.0909003 11.64,33.1392536 8.56631579,33.1392536 C8.03578947,33.1392536 7.51368421,33.1057063 7,33.0478372 C9.90526316,34.9097126 13.3578947,36 17.0631579,36 C29.1389474,36 35.7410526,25.9945163 35.7410526,17.322538 C35.7410526,17.0457727 35.7326316,16.7606206 35.7242105,16.4754685 C37.0042105,15.552079 38.1157895,14.3946969 39,13.0779652 L39,13.0779652 Z" id="Shape" fill="#00BAF2"></path>
    </g>
</svg>